HIERARCHY
ROOT Hips
{
	OFFSET 0.00000 0.00000 0.00000
	CHANNELS 6 Xposition Yposition Zposition Zrotation Yrotation Xrotation 
	JOINT LHipJoint
	{
		OFFSET 0 0 0
		CHANNELS 3 Zrotation Yrotation Xrotation
		JOINT LeftHip
		{
			OFFSET 1.85742 -1.74412 1.01653
			CHANNELS 3 Zrotation Yrotation Xrotation
			JOINT LeftKnee
			{
				OFFSET 2.54803 -7.00067 0.00000
				CHANNELS 3 Zrotation Yrotation Xrotation
				JOINT LeftAnkle
				{
					OFFSET 2.51202 -6.90173 0.00000
					CHANNELS 3 Zrotation Yrotation Xrotation
					JOINT LeftToe
					{
						OFFSET 0.17547 -0.48209 1.64281
						CHANNELS 3 Zrotation Yrotation Xrotation
						End Site
						{
							OFFSET 0.00000 -0.00000 0.86587
						}
					}
				}
			}
		}
	}
	JOINT RHipJoint
	{
		OFFSET 0 0 0
		CHANNELS 3 Zrotation Yrotation Xrotation
		JOINT RightHip
		{
			OFFSET -1.95533 -1.74413 1.01654
			CHANNELS 3 Zrotation Yrotation Xrotation
			JOINT RightKnee
			{
				OFFSET -2.49465 -6.85400 0.00000
				CHANNELS 3 Zrotation Yrotation Xrotation
				JOINT RightAnkle
				{
					OFFSET -2.54783 -7.00010 0.00000
					CHANNELS 3 Zrotation Yrotation Xrotation
					JOINT RightToe
					{
						OFFSET -0.18513 -0.50864 1.69288
						CHANNELS 3 Zrotation Yrotation Xrotation
						End Site
						{
							OFFSET -0.00000 -0.00000 0.89242
						}
					}
				}
			}
		}
	}
	JOINT lowerback
	{
		OFFSET 0 0 0
		CHANNELS 3 Zrotation Yrotation Xrotation
		JOINT Chest
		{
			OFFSET 0.02173 2.16290 -0.15998
			CHANNELS 3 Zrotation Yrotation Xrotation
			JOINT Chest2
			{
				OFFSET 0.00940 2.17323 -0.00467
				CHANNELS 3 Zrotation Yrotation Xrotation
				JOINT lowerneck
				{
					OFFSET 0 0 0
					CHANNELS 3 Zrotation Yrotation Xrotation
					JOINT Neck
					{
						OFFSET 0.01475 1.85823 0.31113
						CHANNELS 3 Zrotation Yrotation Xrotation
						JOINT Head
						{
							OFFSET 0.01902 1.88783 -0.37187
							CHANNELS 3 Zrotation Yrotation Xrotation
							End Site
							{
								OFFSET 0.00489 1.93211 -0.16169
							}
						}
					}
				}
				JOINT LeftCollar
				{
					OFFSET 0 0 0
					CHANNELS 3 Zrotation Yrotation Xrotation
					JOINT LeftShoulder
					{
						OFFSET 3.34199 1.32384 -0.07862
CHANNELS 3 Zrotation Xrotation Yrotation
						JOINT LeftElbow
						{
OFFSET 0 -5.279500 0.000000
CHANNELS 3 Zrotation Xrotation Yrotation
							JOINT LeftWrist
							{
OFFSET 0 -3.535040 0.000000
CHANNELS 3 Zrotation Xrotation Yrotation
								JOINT lhand
								{
									OFFSET 0 0 0
CHANNELS 3 Zrotation Xrotation Yrotation
									JOINT LFingers
									{
OFFSET 0 -0.667950 0.000000
CHANNELS 3 Zrotation Xrotation Yrotation
										End Site
										{
OFFSET 0 -0.538520 0.000000
										}
									}
								}
								JOINT LThumb
								{
OFFSET 0 0.000000 0.000000
CHANNELS 3 Zrotation Xrotation Yrotation
									End Site
									{
OFFSET 0 -0.546740 0.546740
									}
								}
							}
						}
					}
				}
				JOINT RightCollar
				{
					OFFSET 0 0 0
					CHANNELS 3 Zrotation Yrotation Xrotation
					JOINT RightShoulder
					{
						OFFSET -3.16149 1.45719 -0.50507
CHANNELS 3 Zrotation Xrotation Yrotation
						JOINT RightElbow
						{
OFFSET 0 -5.250350 0.000000
CHANNELS 3 Zrotation Xrotation Yrotation
							JOINT RightWrist
							{
OFFSET 0 -3.588840 0.000000
CHANNELS 3 Zrotation Xrotation Yrotation
								JOINT rhand
								{
									OFFSET 0 0 0
CHANNELS 3 Zrotation Xrotation Yrotation
									JOINT RFingers
									{
OFFSET 0 -0.779240 0.000000
CHANNELS 3 Zrotation Xrotation Yrotation
										End Site
										{
OFFSET 0 -0.628240 0.000000
										}
									}
								}
								JOINT RThumb
								{
OFFSET 0 0.000000 0.000000
CHANNELS 3 Zrotation Xrotation Yrotation
									End Site
									{
OFFSET 0 -0.637830 0.637830
									}
								}
							}
						}
					}
				}
			}
		}
	}
}
MOTION
Frames: 13
Frame Time: .0083333
4.8139 17.5645 1.2580 -125.0070 88.3832 -116.4480 0.0000 0.0000 0.0000 -16.6365 -25.2929 -12.1505 2.5093 9.8548 28.5078 0.8447 7.9553 -22.0009 2.1728 -9.2171 -26.4768 0.0000 0.0000 0.0000 23.0164 25.3671 1.3704 -0.9446 -6.1899 17.3363 1.8759 -32.4456 -36.6420 -0.7219 -5.4291 15.1367 -0.4448 1.7960 1.9200 0.6764 2.4248 -2.5317 0.8192 1.2387 -3.7278 0.8557 -0.5434 -21.3887 2.5281 -1.3676 31.9184 0.7026 0.1423 14.6353 -0.0000 0.0000 0.0000 37.312 19.8936 -56.6641 87.3015 -59.9725 57.6632 -37.1482 -86.4899 -66.04 0.0 0.0 0.0 -7.1250 0.0 0.0 -87.5999 -63.4942 -117.1969 -0.0000 0.0000 0.0000 -51.4077 22.1783 60.2542 -73.5236 -58.949 -45.7814 59.6052 -20.0536 -10.1294 0.0 0.0 0.0 7.1250 0.0 -0.0 43.9346 -11.4592 78.8759
4.8335 17.5669 1.2446 -122.8850 88.3968 -114.2390 0.0000 0.0000 0.0000 -16.6473 -25.1467 -12.2053 2.5026 9.8427 28.4688 0.8535 7.8529 -22.0001 2.1556 -9.1828 -26.3689 0.0000 0.0000 0.0000 22.9818 25.4286 1.3717 -0.9412 -6.1792 17.3052 1.8660 -32.4436 -36.6923 -0.7252 -5.4412 15.1715 -0.4801 1.7137 1.9076 0.7137 2.3142 -2.4979 0.8842 1.1847 -3.6866 0.8736 -0.4379 -21.5662 2.4886 -1.2242 31.7703 0.7065 0.1916 14.6053 0.0000 0.0000 0.0000 36.1845 20.7029 -57.7006 77.4102 -59.3925 49.1192 -31.1621 -75.3556 -66.3923 0.0 0.0 0.0 -7.1250 0.0 0.0 -88.2607 -64.8129 -116.1139 0.0000 0.0000 0.0000 -50.6317 22.3111 59.9077 -66.1557 -57.7388 -39.507 57.3999 -17.5715 -9.8377 0.0 0.0 0.0 7.1250 0.0 -0.0 42.9481 -6.1865 72.7687
4.8553 17.5698 1.2318 -119.9650 88.4636 -111.2340 0.0000 0.0000 0.0000 -16.7048 -24.9343 -12.2762 2.5002 9.8383 28.4545 0.8675 7.7163 -22.0209 2.1508 -9.1734 -26.3391 0.0000 0.0000 0.0000 22.8991 25.5253 1.4036 -0.9353 -6.1603 17.2502 1.7928 -32.3148 -36.8515 -0.8247 -5.7939 16.1877 -0.5605 1.6371 1.9221 0.7190 2.2083 -2.4675 0.9402 1.1338 -3.6644 0.9511 -0.2908 -21.7470 2.4388 -1.0382 31.6383 0.7044 0.2657 14.5827 -0.0000 0.0000 0.0000 34.8686 21.6366 -57.1759 68.0549 -58.0997 41.1163 -27.8648 -68.4845 -66.8263 0.0 0.0 0.0 -7.1250 0.0 0.0 -89.4367 -65.6328 -116.3118 -0.0000 0.0000 0.0000 -49.7387 22.5315 58.8172 -59.3304 -56.1289 -33.7846 53.9355 -15.5115 -9.6254 0.0 0.0 0.0 7.1250 0.0 -0.0 42.1718 0.6698 64.3157
4.8761 17.5682 1.2178 -116.1150 88.5621 -107.3160 0.0000 0.0000 0.0000 -16.8112 -24.7809 -12.2903 2.4963 9.8312 28.4320 0.8796 7.6528 -22.0808 2.1287 -9.1291 -26.1999 0.0000 0.0000 0.0000 22.8171 25.6429 1.4482 -0.9336 -6.1547 17.2340 1.9065 -32.5533 -36.6768 -0.7085 -5.3798 14.9950 -0.6412 1.5800 1.9797 0.6802 2.1264 -2.4352 0.9486 1.0940 -3.6632 1.1198 -0.1353 -21.9603 2.3512 -0.8630 31.5372 0.6700 0.3420 14.5812 -0.0000 -0.0000 0.0000 33.4289 22.6377 -55.8254 59.4613 -56.1647 33.8932 -20.6145 -58.1069 -66.6905 0.0 0.0 0.0 -7.1250 0.0 0.0 -89.7558 -67.1979 -114.595 -0.0000 -0.0000 0.0000 -48.7839 22.7651 57.2125 -53.0657 -54.1595 -28.6413 48.4162 -14.6637 -9.3855 0.0 0.0 0.0 7.1250 0.0 -0.0 41.6159 8.4655 53.1526
4.8970 17.5661 1.2019 -110.3730 88.6551 -101.5230 0.0000 0.0000 0.0000 -16.9264 -24.6517 -12.2577 2.4912 9.8218 28.4016 0.8894 7.6428 -22.1609 2.0996 -9.0705 -26.0162 0.0000 0.0000 0.0000 22.7484 25.7895 1.5019 -0.9353 -6.1602 17.2500 2.0454 -32.8400 -36.4584 -0.5654 -4.8158 13.3840 -0.6793 1.5504 2.0498 0.6263 2.0826 -2.4253 0.9149 1.0720 -3.6909 1.2658 -0.0285 -22.0565 2.2662 -0.7453 31.4249 0.6296 0.3919 14.5499 0.0000 0.0000 0.0000 31.8073 23.6136 -53.1954 52.3090 -53.8853 28.0289 -10.9658 -46.7552 -66.6973 0.0 0.0 0.0 -7.1250 0.0 0.0 -91.8441 -69.4696 -113.9482 0.0000 0.0000 0.0000 -47.9351 22.9384 55.505 -47.3687 -51.8775 -24.0881 40.8918 -15.8505 -8.4528 0.0 0.0 0.0 7.1250 0.0 -0.0 40.6474 15.3105 41.0872
4.9199 17.5662 1.1848 -103.3680 88.7737 -94.4709 0.0000 0.0000 0.0000 -17.0912 -24.4947 -12.2224 2.4872 9.8147 28.3786 0.8982 7.6386 -22.2360 2.0784 -9.0275 -25.8812 0.0000 0.0000 0.0000 22.6219 25.9451 1.5550 -0.9361 -6.1629 17.2577 2.1688 -33.0852 -36.2497 -0.4756 -4.4228 12.2694 -0.7612 1.5357 2.0955 0.5782 2.0575 -2.4286 0.9112 1.0610 -3.7208 1.3638 0.0590 -22.0306 2.1727 -0.6274 31.2955 0.5936 0.4352 14.4844 0.0000 0.0000 0.0000 30.0084 24.5641 -49.6192 46.3553 -51.4154 23.2934 0.1576 -34.2056 -66.5614 0.0 0.0 0.0 -7.1250 0.0 0.0 -96.0166 -72.155 -114.9798 0.0000 0.0000 0.0000 -47.0823 23.1305 53.4782 -42.4427 -49.4523 -20.2763 31.994 -18.2384 -6.4571 0.0 0.0 0.0 7.1250 0.0 -0.0 38.3981 20.638 29.9811
4.9440 17.5682 1.1676 -94.9860 88.8332 -86.0364 0.0000 0.0000 0.0000 -17.2214 -24.4587 -12.1439 2.4835 9.8078 28.3566 0.9025 7.7415 -22.3535 2.0449 -8.9589 -25.6668 0.0000 0.0000 0.0000 22.5323 26.1068 1.5969 -0.9374 -6.1671 17.2701 2.3002 -33.3465 -36.0312 -0.3963 -4.0421 11.1950 -0.8464 1.5374 2.0948 0.5572 2.0557 -2.4273 0.9374 1.0620 -3.7213 1.3919 0.0934 -22.0585 2.1184 -0.5741 31.2437 0.5754 0.4506 14.4665 0.0000 0.0000 0.0000 28.1938 25.3431 -45.2999 41.2772 -48.8087 19.395 12.7889 -20.9171 -66.0219 0.0 0.0 0.0 -7.1250 0.0 0.0 -103.6224 -75.1406 -118.9885 0.0000 0.0000 0.0000 -46.1481 23.3587 50.9701 -38.3425 -47.0567 -17.2159 20.9509 -21.0792 -2.7652 0.0 0.0 0.0 7.1250 0.0 -0.0 34.0152 25.848 19.2426
4.9679 17.5691 1.1514 -84.9980 88.8143 -75.9981 0.0000 0.0000 0.0000 -17.3131 -24.6159 -11.9763 2.4813 9.8038 28.3436 0.9020 8.0307 -22.5727 1.9995 -8.8651 -25.3741 0.0000 0.0000 0.0000 22.5081 26.2994 1.6693 -0.9380 -6.1689 17.2753 2.3962 -33.5465 -35.8918 -0.3355 -3.7222 10.2965 -0.9027 1.5754 2.0898 0.5339 2.1037 -2.4459 0.9421 1.0873 -3.7401 1.4058 0.0652 -22.0629 2.0542 -0.6011 31.2209 0.5411 0.4300 14.4568 -0.0000 0.0000 0.0000 26.4871 25.8559 -40.5457 36.7551 -46.0255 16.0636 22.9852 -10.2336 -65.1755 0.0 0.0 0.0 -7.1250 0.0 0.0 -113.1657 -77.3622 -125.5278 -0.0000 0.0000 0.0000 -45.2322 23.5455 48.3095 -34.8269 -44.6881 -14.6915 9.1633 -22.9758 1.3126 0.0 0.0 0.0 7.1250 0.0 -0.0 27.5381 30.3986 10.9957
4.9928 17.5682 1.1351 -76.0406 88.7674 -66.9706 0.0000 0.0000 0.0000 -17.4030 -24.7691 -11.8418 2.4825 9.8059 28.3506 0.8995 8.3393 -22.7931 1.9711 -8.8056 -25.1891 0.0000 0.0000 0.0000 22.4735 26.4807 1.7420 -0.9358 -6.1620 17.2552 2.4838 -33.7310 -35.7718 -0.2734 -3.3632 9.2917 -0.9101 1.6366 2.0527 0.4643 2.1840 -2.5064 0.8703 1.1273 -3.7813 1.4330 0.0175 -21.8501 2.0122 -0.6599 31.0909 0.5057 0.3991 14.3522 -0.0000 -0.0000 0.0000 24.9467 26.094 -35.3534 33.0984 -43.4056 13.4897 30.2944 -3.4338 -63.5319 0.0 0.0 0.0 -7.1250 0.0 0.0 -120.7827 -79.2486 -130.5749 -0.0000 -0.0000 0.0000 -44.2099 23.7154 45.2456 -31.7092 -42.3141 -12.5446 -2.6147 -23.5009 4.2421 0.0 0.0 0.0 7.1250 0.0 -0.0 19.4706 33.698 5.6787
5.0179 17.5691 1.1184 -70.7958 88.6907 -61.6279 0.0000 0.0000 0.0000 -17.4283 -24.7303 -11.8508 2.4859 9.8123 28.3709 0.8992 8.4402 -22.8710 1.9856 -8.8361 -25.2840 0.0000 0.0000 0.0000 22.4481 26.6136 1.7901 -0.9329 -6.1527 17.2280 2.4568 -33.7106 -35.8845 -0.2564 -3.2581 8.9981 -0.8302 1.7363 1.9517 0.3737 2.3193 -2.5826 0.7269 1.1921 -3.7992 1.3317 -0.1073 -21.5390 2.0986 -0.8224 30.8960 0.5247 0.3260 14.1998 -0.0000 -0.0000 0.0000 23.7016 26.0482 -30.0108 30.1388 -41.0121 11.5006 38.4873 3.1774 -62.6564 0.0 0.0 0.0 -7.1250 0.0 0.0 -136.9790 -80.035 -144.2416 -0.0000 -0.0000 0.0000 -43.0101 23.9357 41.2753 -29.0052 -40.0253 -10.7641 -12.8752 -23.165 5.4413 0.0 0.0 0.0 7.1250 0.0 -0.0 11.4809 35.3652 2.7633
5.0413 17.5694 1.1018 -66.5447 88.6241 -57.3156 0.0000 0.0000 0.0000 -17.4693 -24.5451 -11.8887 2.4893 9.8184 28.3907 0.9046 8.3759 -22.8670 2.0172 -8.9019 -25.4889 0.0000 0.0000 0.0000 22.4189 26.7143 1.8800 -0.9298 -6.1427 17.1989 2.3968 -33.6281 -36.0563 -0.2546 -3.2467 8.9663 -0.7847 1.8691 1.9065 0.2922 2.4970 -2.6388 0.6086 1.2788 -3.8298 1.1352 -0.2968 -21.4153 2.1875 -1.0508 30.8268 0.5518 0.2164 14.1454 -0.0000 0.0000 0.0000 22.6847 25.7307 -24.3784 27.5617 -38.7096 9.8484 43.1245 6.4043 -61.5662 0.0 0.0 0.0 -7.1250 0.0 0.0 -147.1941 -80.4411 -152.7409 -0.0000 0.0000 0.0000 -41.7358 24.0831 36.4617 -26.6922 -37.8841 -9.3095 -20.4937 -22.652 5.3046 0.0 0.0 0.0 7.1250 0.0 -0.0 5.1736 35.6013 1.1988
5.0636 17.5683 1.0836 -61.5957 88.5562 -52.3799 0.0000 0.0000 0.0000 -17.5728 -24.3502 -11.8397 2.4930 9.8251 28.4122 0.9193 8.2881 -22.9255 1.9979 -8.8617 -25.3637 0.0000 0.0000 0.0000 22.4002 26.8002 2.0474 -0.9252 -6.1279 17.1561 2.4854 -33.8008 -35.9079 -0.2073 -2.9317 8.0888 -0.7996 1.9690 1.9489 0.2210 2.6275 -2.6762 0.5341 1.3434 -3.8922 1.0432 -0.4264 -21.3637 2.1881 -1.2017 30.8575 0.5409 0.1424 14.1493 0.0000 0.0000 0.0000 21.8602 25.3992 -19.0763 25.9357 -37.1452 8.8488 50.4192 10.625 -60.6806 0.0 0.0 0.0 -7.1250 0.0 0.0 -163.4789 -79.4024 -166.7477 0.0000 0.0000 0.0000 -40.501 23.9973 31.202 -24.7481 -35.9454 -8.1416 -25.8328 -22.1679 4.523 0.0 0.0 0.0 7.1250 0.0 -0.0 0.6825 35.0018 0.1676
5.0847 17.5696 1.0645 -57.6619 88.4743 -48.4684 0.0000 0.0000 0.0000 -17.6671 -24.1796 -11.7858 2.4973 9.8331 28.4379 0.9381 8.1833 -23.0057 1.9226 -8.7029 -24.8703 0.0000 0.0000 0.0000 22.3981 26.8736 2.2316 -0.9200 -6.1110 17.1069 2.5418 -33.9110 -35.8153 -0.1770 -2.7096 7.4714 -0.8104 2.0394 1.9742 0.1580 2.7192 -2.7123 0.4686 1.3888 -3.9430 0.9540 -0.4931 -21.2683 2.2550 -1.2819 30.8780 0.5693 0.1086 14.1395 0.0000 -0.0000 0.0000 21.2449 25.0039 -13.7097 24.3544 -35.5368 7.9116 54.1472 11.832 -59.7254 0.0 0.0 0.0 -7.1250 0.0 0.0 -171.3596 -78.8095 -173.193 0.0000 -0.0000 0.0000 -39.4196 23.7503 25.9559 -23.1941 -34.3004 -7.2474 -30.3217 -22.2339 3.4517 0.0 0.0 0.0 7.1250 0.0 -0.0 -3.0427 33.9651 -0.8246
